<svg width="28" height="28" viewBox="0 0 28 28" fill="none" xmlns="http://www.w3.org/2000/svg">
<path d="M20.5912 12.3041C20.7214 12.174 20.8246 12.0194 20.8951 11.8494C20.9655 11.6793 21.0018 11.497 21.0018 11.3129C21.0018 11.1288 20.9655 10.9466 20.8951 10.7765C20.8246 10.6064 20.7214 10.4519 20.5912 10.3217C20.461 10.1916 20.3065 10.0883 20.1364 10.0179C19.9664 9.94742 19.7841 9.91116 19.6 9.91116C19.4159 9.91116 19.2336 9.94742 19.0636 10.0179C18.8935 10.0883 18.739 10.1916 18.6088 10.3217L12.6 16.3333L9.3912 13.1217C9.26103 12.9916 9.1065 12.8883 8.93643 12.8179C8.76636 12.7474 8.58408 12.7112 8.4 12.7112C8.21592 12.7112 8.03364 12.7474 7.86357 12.8179C7.6935 12.8883 7.53897 12.9916 7.4088 13.1217C7.27863 13.2519 7.17538 13.4064 7.10493 13.5765C7.03449 13.7466 6.99823 13.9289 6.99823 14.1129C6.99823 14.297 7.03449 14.4793 7.10493 14.6494C7.17538 14.8194 7.27863 14.974 7.4088 15.1041L11.6088 19.3041C11.7388 19.4345 11.8933 19.538 12.0634 19.6085C12.2335 19.6791 12.4159 19.7154 12.6 19.7154C12.7841 19.7154 12.9665 19.6791 13.1366 19.6085C13.3067 19.538 13.4612 19.4345 13.5912 19.3041L20.5912 12.3041ZM14 0C10.287 0 6.72601 1.475 4.1005 4.1005C1.475 6.72601 0 10.287 0 14C0 17.713 1.475 21.274 4.1005 23.8995C6.72601 26.525 10.287 28 14 28C17.713 28 21.274 26.525 23.8995 23.8995C26.525 21.274 28 17.713 28 14C28 10.287 26.525 6.72601 23.8995 4.1005C21.274 1.475 17.713 0 14 0ZM2.8 14C2.8 11.0296 3.98 8.18081 6.0804 6.0804C8.18081 3.98 11.0296 2.8 14 2.8C16.9704 2.8 19.8192 3.98 21.9196 6.0804C24.02 8.18081 25.2 11.0296 25.2 14C25.2 16.9704 24.02 19.8192 21.9196 21.9196C19.8192 24.02 16.9704 25.2 14 25.2C11.0296 25.2 8.18081 24.02 6.0804 21.9196C3.98 19.8192 2.8 16.9704 2.8 14Z" fill="#D12A11"/>
</svg>
