<svg width="56" height="56" viewBox="0 0 56 56" fill="none" xmlns="http://www.w3.org/2000/svg">
<path d="M53.375 2.34801V53.652C53.375 54.2747 53.1241 54.872 52.6776 55.3123C52.2311 55.7526 51.6255 56 50.994 56H13.756C13.1245 56 12.5189 55.7526 12.0724 55.3123C11.6259 54.872 11.375 54.2747 11.375 53.652V17.5396L24.4702 0H50.994C51.6255 0 52.2311 0.247379 52.6776 0.687716C53.1241 1.12805 53.375 1.72528 53.375 2.34801Z" fill="#EDEEEF"/>
<path d="M24.5 0V15.1399C24.5 15.7659 24.2474 16.3661 23.7979 16.8087C23.3483 17.2513 22.7385 17.5 22.1027 17.5H11.375L24.5 0Z" fill="#CFD0D1"/>
<path d="M37.0283 32.375H4.97174C3.67567 32.375 2.625 33.3795 2.625 34.6186V45.8814C2.625 47.1205 3.67567 48.125 4.97174 48.125H37.0283C38.3243 48.125 39.375 47.1205 39.375 45.8814V34.6186C39.375 33.3795 38.3243 32.375 37.0283 32.375Z" fill="#FF3717"/>
<path d="M15.1152 41.2017V43.7474H13.125V36.7585H15.8701C16.4044 36.7288 16.9387 36.8172 17.4371 37.0178C17.7918 37.1833 18.0905 37.4542 18.2949 37.7956C18.5018 38.1514 18.6087 38.5595 18.6038 38.9742C18.6172 39.2751 18.5668 39.5754 18.4562 39.8543C18.3456 40.1331 18.1774 40.3838 17.9632 40.5888C17.4865 41.0162 16.8672 41.2359 16.2361 41.2017H15.1152ZM15.1152 39.7049H15.7786C16.3619 39.7049 16.6479 39.4692 16.6479 39.0096C16.6479 38.5499 16.3848 38.3496 15.8472 38.3496H15.1152V39.7049ZM19.3472 43.7474V36.7585H21.8521C22.3086 36.7231 22.7668 36.7985 23.1899 36.9786C23.613 37.1587 23.9893 37.4386 24.2884 37.7956C24.8273 38.477 25.115 39.3328 25.1005 40.2117C25.1488 41.1453 24.8362 42.0606 24.2312 42.7574C23.944 43.0856 23.5901 43.3444 23.1947 43.5155C22.7993 43.6866 22.3721 43.7658 21.9436 43.7474H19.3472ZM21.3374 42.1328H21.8521C22.0233 42.1297 22.1906 42.0802 22.3372 41.9891C22.4839 41.898 22.6045 41.7687 22.6871 41.6142C22.9267 41.1895 23.0419 40.7024 23.0188 40.2117C23.0277 39.7531 22.9255 39.2994 22.7214 38.8917C22.6412 38.7258 22.517 38.5867 22.3631 38.4907C22.2092 38.3947 22.032 38.3458 21.8521 38.3496H21.3374V42.1328ZM29.9845 41.131H27.8799V43.7474H25.9469V36.7585H30.625V38.4203H27.8799V39.5988H29.9845V41.131Z" fill="#EDEEEF"/>
</svg>
