<svg width="256" height="63" viewBox="0 0 256 63" fill="none" xmlns="http://www.w3.org/2000/svg">
<g clip-path="url(#clip0_2001_57)">
<path d="M33.1811 63C51.5065 63 66.3622 59.5399 66.3622 55.2717C66.3622 51.0035 51.5065 47.5435 33.1811 47.5435C14.8557 47.5435 0 51.0035 0 55.2717C0 59.5399 14.8557 63 33.1811 63Z" fill="url(#paint0_radial_2001_57)"/>
<path d="M35.067 11.0746C39.0055 13.3487 42.9255 17.4162 43.2213 24.673C42.5187 32.355 38.2751 32.882 38.2751 32.882C41.437 20.0416 27.9575 18.165 21.9481 25.163C21.8649 25.1815 21.7909 25.1999 21.7077 25.2184C14.33 28.1489 11.9725 34.1484 11.2883 38.6412C10.7891 36.8108 10.521 34.8787 10.521 32.8912C10.521 20.7534 20.3579 10.9175 32.4969 10.9175C33.3659 10.9175 34.2257 10.9729 35.067 11.0746Z" fill="url(#paint1_radial_2001_57)"/>
<path d="M36.2781 53.7464V18.7475L37.1564 18.4886V18.0357H37.6186V16.8154H35.483V13.7833H35.5847V13.3303H35.7788V13.0437H35.3443C35.2056 12.563 34.8635 12.1563 34.4198 11.9067C34.4568 11.731 34.5769 11.426 34.9375 11.2966C35.4367 11.1302 35.6864 10.7789 35.6864 10.7789C35.6864 10.7789 35.0022 9.74351 34.8543 9.47542C34.7064 9.20734 34.5954 8.79134 34.5954 8.79134C34.5954 8.79134 34.7434 8.97623 34.7434 8.63419C34.7434 8.29215 34.8913 8.18122 34.8913 8.18122L35.2611 8.96698C35.2611 8.96698 35.5754 7.42318 35.5107 6.36933C35.4367 5.31548 35.0484 4.465 34.4937 4.49274C34.0315 4.51123 33.8743 4.93646 33.8281 5.07513V2.05224H35.1132V1.61775H33.8281V0H33.4398V1.60851H32.1639V2.04299H33.4398V5.01966L33.1347 4.94571C33.1347 4.94571 33.2364 4.3818 32.7926 4.30785C32.3488 4.2339 32.5337 4.86251 32.4413 4.881C32.3396 4.90873 32.016 4.56669 32.0622 4.04901C32.1085 3.53133 32.09 3.30946 32.09 3.30946C32.09 3.30946 32.3581 2.96742 32.3488 2.86574C32.3396 2.76405 32.2194 2.61614 32.2194 2.61614C32.2194 2.61614 31.8404 3.07836 31.8866 3.22627C31.9328 3.37417 31.6832 3.92883 31.8866 4.92722C32.0807 5.92561 32.1454 6.092 32.2287 6.43404C32.3026 6.77608 32.4043 7.59883 32.3951 8.11651C32.3858 8.63419 32.3026 9.13338 32.3951 9.16111C32.4875 9.18885 32.5985 9.71577 32.543 10.1965C32.4783 10.6772 32.4228 11.4445 32.4228 11.4445C32.4228 11.4445 32.4875 11.6386 32.6909 11.6386C32.7741 11.6386 32.8296 11.6756 32.8573 11.7125C32.1732 11.8974 31.6462 12.4059 31.4613 13.0437H31.0268V13.3303H31.2209V13.7833H31.3226V16.8154H29.1777V18.0357H29.64V18.4886L30.5183 18.7475V54.07L36.3243 53.7464H36.2781Z" fill="url(#paint2_linear_2001_57)"/>
<path d="M54.4727 32.8912C54.4727 37.9386 52.7716 42.5793 49.9056 46.2955C49.055 46.8594 48.1397 47.3678 47.169 47.7838C43.2767 49.4478 38.4415 49.6142 32.9313 45.8702C28.5676 41.5069 30.3612 37.5134 30.3612 37.5134C40.1611 47.9317 51.2831 35.5166 44.5618 26.2353C44.6173 25.7269 44.6543 25.2185 44.682 24.7377C44.9131 18.6457 42.0564 14.532 38.9038 11.8789C47.9178 14.6152 54.4819 22.9813 54.4819 32.8912H54.4727Z" fill="url(#paint3_radial_2001_57)"/>
<path d="M30.9991 46.0921C36.8144 51.5463 42.6573 51.158 47.243 49.1797C43.3415 52.7203 38.1734 54.8742 32.4968 54.8742C23.7324 54.8742 16.1698 49.7436 12.6381 42.3297V42.2835C12.5179 37.7353 13.7845 31.4306 20.515 27.2522C27.4859 23.9612 30.1116 27.5018 30.1116 27.5018C17.3717 31.5508 21.3009 46.2585 30.9899 46.0921H30.9991Z" fill="url(#paint4_radial_2001_57)"/>
<path d="M87.6909 45.3621H80.2854V37.5229C80.2854 33.8344 80.6553 30.3031 81.3949 26.9196L75.8662 45.3713H66.8799V19.7368H74.2853V27.8811C74.2853 29.9425 74.1929 31.6712 74.008 33.0486C73.823 34.4353 73.5457 36.09 73.1759 38.0036L78.8802 19.7368H87.6816V45.3713L87.6909 45.3621Z" fill="white"/>
<path d="M109.861 19.7275L109.084 25.4035H103.269V45.362H95.6788V25.4035H89.4568V19.7275H109.861Z" fill="white"/>
<path d="M141.609 39.686V51.8053H136.561L135.821 45.362H123.007L122.268 51.8053H117.22V39.686H119.171C119.809 38.854 120.345 37.5968 120.789 35.9143C121.232 34.2319 121.676 31.6435 122.111 28.1584L123.146 19.7275H139.242V39.686H141.6H141.609ZM131.957 25.1447H129.488L129.303 27.2432C128.961 30.8022 128.453 33.5293 127.796 35.4244C127.131 37.3102 126.225 38.7338 125.069 39.6953H131.957V25.154V25.1447Z" fill="white"/>
<path d="M163.816 45.3621H156.41V37.5229C156.41 33.8344 156.78 30.3031 157.52 26.9196L152.001 45.3713H143.014V19.7368H150.42V27.8811C150.42 29.9425 150.327 31.6712 150.142 33.0486C149.957 34.4353 149.68 36.09 149.31 38.0036L155.014 19.7368H163.816V45.3713V45.3621Z" fill="white"/>
<path d="M180.42 45.362L179.422 40.3886H173.348L172.386 45.362H164.463L171.943 19.7275H181.003L188.445 45.362H180.42ZM174.42 35.0823H178.359L176.371 25.0245L174.42 35.0823Z" fill="white"/>
<path d="M209.996 19.7275V45.362H202.415V25.3296H198.772L197.922 32.5494C197.579 35.4244 197.117 37.7539 196.544 39.5473C195.971 41.3407 195.092 42.7921 193.928 43.8922C192.763 45.0015 191.163 45.7318 189.12 46.1016L187.354 40.9432C188.214 40.5735 188.861 40.065 189.287 39.4179C189.712 38.7708 190.035 37.9296 190.248 36.8942C190.461 35.8681 190.692 34.2226 190.969 31.9578L192.439 19.7275H210.005H209.996Z" fill="white"/>
<path d="M233.146 22.5469C235.226 24.9135 236.262 28.2322 236.262 32.5123C236.262 35.2856 235.79 37.6891 234.866 39.7321C233.932 41.7658 232.573 43.3374 230.779 44.4467C228.986 45.556 226.822 46.1014 224.298 46.1014C220.471 46.1014 217.521 44.9089 215.441 42.5146C213.361 40.1204 212.326 36.7832 212.326 32.5215C212.326 29.7482 212.797 27.3447 213.722 25.3202C214.655 23.2957 216.015 21.7334 217.808 20.6426C219.602 19.5518 221.765 19.0063 224.289 19.0063C228.117 19.0063 231.066 20.1896 233.146 22.5562V22.5469ZM221.155 26.2262C220.517 27.4649 220.193 29.5634 220.193 32.503C220.193 35.4427 220.508 37.5504 221.155 38.8169C221.793 40.0834 222.837 40.712 224.28 40.712C225.722 40.712 226.804 40.0834 227.432 38.8354C228.061 37.5874 228.375 35.4705 228.375 32.503C228.375 29.5356 228.061 27.4649 227.423 26.2262C226.785 24.9874 225.74 24.3681 224.289 24.3681C222.837 24.3681 221.802 24.9874 221.164 26.2262H221.155Z" fill="white"/>
<path d="M256 19.7275L255.26 25.5515H246.163V45.362H238.573V19.7275H255.991H256Z" fill="white"/>
<path d="M112.69 34.7685C114.089 34.7685 115.223 33.6344 115.223 32.2353C115.223 30.8363 114.089 29.7021 112.69 29.7021C111.291 29.7021 110.157 30.8363 110.157 32.2353C110.157 33.6344 111.291 34.7685 112.69 34.7685Z" fill="white"/>
</g>
<defs>
<radialGradient id="paint0_radial_2001_57" cx="0" cy="0" r="1" gradientUnits="userSpaceOnUse" gradientTransform="translate(33.1811 55.2699) scale(24.093 4.81814)">
<stop offset="0.22" stop-opacity="0.3"/>
<stop offset="1" stop-opacity="0"/>
</radialGradient>
<radialGradient id="paint1_radial_2001_57" cx="0" cy="0" r="1" gradientUnits="userSpaceOnUse" gradientTransform="translate(28.1609 6.92394) scale(27.7634 27.7607)">
<stop stop-color="white"/>
<stop offset="0.31" stop-color="#E6D7DF"/>
<stop offset="0.65" stop-color="#FFFCE7"/>
<stop offset="0.79" stop-color="#F7F4E5"/>
<stop offset="1" stop-color="#E2E1E1"/>
</radialGradient>
<linearGradient id="paint2_linear_2001_57" x1="33.3751" y1="54.07" x2="33.3751" y2="0" gradientUnits="userSpaceOnUse">
<stop stop-color="white" stop-opacity="0"/>
<stop offset="1" stop-color="#A99893"/>
</linearGradient>
<radialGradient id="paint3_radial_2001_57" cx="0" cy="0" r="1" gradientUnits="userSpaceOnUse" gradientTransform="translate(63.459 42.5608) scale(35.8067 35.8032)">
<stop stop-color="#D20A11"/>
<stop offset="0.52" stop-color="#E30613"/>
<stop offset="0.63" stop-color="#C90D18"/>
<stop offset="0.85" stop-color="#871F26"/>
<stop offset="1" stop-color="#582C30"/>
</radialGradient>
<radialGradient id="paint4_radial_2001_57" cx="0" cy="0" r="1" gradientUnits="userSpaceOnUse" gradientTransform="translate(11.2051 51.5555) scale(26.4875 26.485)">
<stop stop-color="#C1D9F3"/>
<stop offset="0.35" stop-color="#0090CF"/>
<stop offset="0.67" stop-color="#004B8E"/>
<stop offset="1" stop-color="#322455"/>
</radialGradient>
<clipPath id="clip0_2001_57">
<rect width="256" height="63" fill="white"/>
</clipPath>
</defs>
</svg>
