<svg width="80" height="80" viewBox="0 0 80 80" fill="none" xmlns="http://www.w3.org/2000/svg">
<g clip-path="url(#clip0_2018_769)">
<circle cx="40" cy="40" r="40" fill="#E1E6EB"/>
<path d="M16.6666 72.4932V68.8965C16.6666 64.7687 18.231 60.8099 21.0156 57.8912C23.8003 54.9724 27.577 53.3326 31.5151 53.3326H48.4848C52.4229 53.3326 56.1996 54.9724 58.9843 57.8912C61.7689 60.8099 63.3333 64.7687 63.3333 68.8965V72.4932C56.7658 77.2176 48.7078 80.0002 40 80.0002C31.2921 80.0002 23.2341 77.2176 16.6666 72.4932Z" fill="#78838F"/>
<path d="M34.2113 14.4134C36.0531 13.654 38.0213 13.2883 40 13.3379C41.9786 13.2883 43.9468 13.654 45.7887 14.4134C47.6305 15.1729 49.3089 16.3107 50.7251 17.76C52.1412 19.2093 53.2666 20.9409 54.0349 22.8528C54.8033 24.7647 55.1991 26.8183 55.1991 28.8929C55.1991 30.9675 54.8033 33.0212 54.0349 34.933C53.2666 36.8449 52.1412 38.5765 50.7251 40.0258C49.3089 41.4751 47.6305 42.613 45.7887 43.3724C43.9468 44.1318 41.9786 44.4975 40 44.4479C38.0213 44.4975 36.0531 44.1318 34.2113 43.3724C32.3694 42.613 30.691 41.4751 29.2748 40.0258C27.8587 38.5765 26.7333 36.8449 25.965 34.933C25.1967 33.0212 24.8008 30.9675 24.8008 28.8929C24.8008 26.8183 25.1967 24.7647 25.965 22.8528C26.7333 20.9409 27.8587 19.2093 29.2748 17.76C30.691 16.3107 32.3694 15.1729 34.2113 14.4134Z" fill="#78838F"/>
</g>
<defs>
<clipPath id="clip0_2018_769">
<rect width="80" height="80" rx="40" fill="white"/>
</clipPath>
</defs>
</svg>
