<svg width="40" height="40" viewBox="0 0 40 40" fill="none" xmlns="http://www.w3.org/2000/svg">
<rect width="40" height="40" rx="20" fill="#D12A11"/>
<path fill-rule="evenodd" clip-rule="evenodd" d="M27.6333 15.9655C27.744 15.6015 27.6333 15.3335 27.1033 15.3335H25.3533C24.908 15.3335 24.7027 15.5648 24.5913 15.8202C24.5913 15.8202 23.7013 17.9508 22.4407 19.3348C22.0327 19.7362 21.8473 19.8635 21.6247 19.8635C21.5133 19.8635 21.346 19.7362 21.346 19.3715V15.9655C21.346 15.5282 21.2233 15.3335 20.8527 15.3335H18.1007C17.8227 15.3335 17.6553 15.5362 17.6553 15.7288C17.6553 16.1428 18.286 16.2388 18.3507 17.4042V19.9362C18.3507 20.4915 18.2487 20.5922 18.026 20.5922C17.4327 20.5922 15.9893 18.4515 15.1327 16.0022C14.9667 15.5255 14.7987 15.3335 14.3513 15.3335H12.6C12.1 15.3335 12 15.5648 12 15.8202C12 16.2748 12.5933 18.5335 14.7633 21.5208C16.21 23.5608 18.2467 24.6668 20.102 24.6668C21.2147 24.6668 21.352 24.4215 21.352 23.9982V22.4562C21.352 21.9648 21.4573 21.8668 21.81 21.8668C22.07 21.8668 22.5147 21.9948 23.5533 22.9782C24.74 24.1442 24.9353 24.6668 25.6033 24.6668H27.3533C27.8533 24.6668 28.104 24.4215 27.96 23.9362C27.8013 23.4535 27.2347 22.7528 26.4833 21.9215C26.0753 21.4482 25.4633 20.9382 25.2773 20.6828C25.018 20.3555 25.092 20.2095 25.2773 19.9182C25.2773 19.9182 27.4107 16.9675 27.6327 15.9655" fill="white"/>
</svg>
