<svg width="40" height="40" viewBox="0 0 40 40" fill="none" xmlns="http://www.w3.org/2000/svg">
<rect width="40" height="40" rx="20" fill="#D12A11"/>
<path fill-rule="evenodd" clip-rule="evenodd" d="M23.6659 21.588C23.4662 21.4887 22.4876 21.01 22.3054 20.9433C22.1231 20.8773 21.9905 20.8447 21.8572 21.0433C21.7246 21.2413 21.3434 21.6873 21.2275 21.8193C21.111 21.952 20.9951 21.968 20.7961 21.8693C20.5972 21.7693 19.9554 21.5607 19.1951 20.886C18.6036 20.3607 18.2037 19.712 18.0878 19.5133C17.9719 19.3153 18.0751 19.208 18.1749 19.1093C18.2647 19.0207 18.3739 18.878 18.4737 18.7627C18.5735 18.6467 18.6063 18.564 18.6726 18.4313C18.7396 18.2993 18.7061 18.184 18.6559 18.0847C18.6063 17.9853 18.2084 17.01 18.0423 16.6134C17.8808 16.2274 17.7167 16.28 17.5948 16.2734C17.4782 16.268 17.3456 16.2667 17.213 16.2667C17.0803 16.2667 16.8646 16.316 16.6824 16.5147C16.4995 16.7127 15.9858 17.192 15.9858 18.1673C15.9858 19.142 16.6985 20.084 16.7983 20.2167C16.8981 20.3487 18.2017 22.35 20.1986 23.208C20.6742 23.412 21.0447 23.534 21.3334 23.6247C21.8103 23.776 22.2444 23.7547 22.5874 23.7033C22.9692 23.6467 23.765 23.224 23.9311 22.7613C24.0966 22.2987 24.0966 21.902 24.047 21.8193C23.9975 21.7367 23.8648 21.6873 23.6652 21.588M20.0331 26.5233H20.0305C18.8444 26.5236 17.6801 26.2062 16.6596 25.6047L16.4185 25.462L13.9118 26.1167L14.581 23.6847L14.4236 23.4353C13.7605 22.3849 13.4096 21.1692 13.4114 19.9287C13.4128 16.2954 16.383 13.3394 20.0358 13.3394C20.9058 13.3371 21.7675 13.5068 22.5711 13.8385C23.3747 14.1703 24.104 14.6575 24.7169 15.272C25.3334 15.883 25.822 16.6095 26.1545 17.4096C26.487 18.2097 26.6569 19.0675 26.6542 19.9333C26.6528 23.5667 23.6826 26.5233 20.0331 26.5233ZM25.6681 14.3254C24.9301 13.5861 24.0521 12.9998 23.0848 12.6007C22.1175 12.2015 21.0803 11.9974 20.0331 12C15.6428 12 12.0683 15.5567 12.067 19.928C12.065 21.3192 12.4317 22.6863 13.1301 23.8913L12 28L16.2229 26.8973C17.3911 27.5307 18.7002 27.8626 20.0305 27.8627H20.0338C24.4242 27.8627 27.9986 24.306 28 19.934C28.0032 18.8922 27.7988 17.8601 27.3987 16.8974C26.9986 15.9347 26.4106 15.0605 25.6688 14.3254" fill="white"/>
</svg>
