<svg width="20" height="20" viewBox="0 0 20 20" fill="none" xmlns="http://www.w3.org/2000/svg">
<path fill-rule="evenodd" clip-rule="evenodd" d="M17.9283 2.61402C18.1742 2.51306 18.4434 2.47824 18.7078 2.51318C18.9722 2.54813 19.2221 2.65156 19.4316 2.81271C19.6411 2.97386 19.8025 3.18684 19.899 3.42948C19.9955 3.67212 20.0235 3.93555 19.9802 4.19236L17.7234 17.5461C17.5044 18.8342 16.0556 19.5729 14.8446 18.9313C13.8316 18.3945 12.327 17.5675 10.9737 16.7045C10.297 16.2726 8.22427 14.8893 8.47901 13.9051C8.69793 13.0635 12.1807 9.90097 14.1709 8.02075C14.952 7.28205 14.5958 6.85592 13.6734 7.5354C11.3827 9.22246 7.70483 11.788 6.48884 12.5102C5.41614 13.1469 4.8569 13.2557 4.1882 13.1469C2.96823 12.9489 1.83682 12.6422 0.913377 12.2685C-0.33446 11.7637 -0.27376 10.0903 0.912382 9.60297L17.9283 2.61402Z" fill="#D12A11"/>
</svg>
