<svg width="40" height="40" viewBox="0 0 40 40" fill="none" xmlns="http://www.w3.org/2000/svg">
<rect width="40" height="40" rx="20" fill="#D12A11"/>
<path fill-rule="evenodd" clip-rule="evenodd" d="M26.3427 14.0912C26.5394 14.0104 26.7547 13.9826 26.9662 14.0105C27.1777 14.0385 27.3777 14.1212 27.5453 14.2502C27.7129 14.3791 27.842 14.5495 27.9192 14.7436C27.9964 14.9377 28.0188 15.1484 27.9842 15.3539L26.1787 26.0369C26.0035 27.0674 24.8445 27.6583 23.8757 27.145C23.0653 26.7156 21.8616 26.054 20.779 25.3636C20.2376 25.018 18.5794 23.9115 18.7832 23.124C18.9583 22.4508 21.7446 19.9208 23.3367 18.4166C23.9616 17.8256 23.6766 17.4847 22.9387 18.0283C21.1061 19.378 18.1639 21.4304 17.1911 22.0081C16.3329 22.5176 15.8855 22.6045 15.3506 22.5176C14.3746 22.3591 13.4695 22.1138 12.7307 21.8148C11.7324 21.411 11.781 20.0722 12.7299 19.6824L26.3427 14.0912Z" fill="white"/>
</svg>
